<svg id="Layer_1" data-name="Layer 1" xmlns="http://www.w3.org/2000/svg" viewBox="0 0 576 144"><defs><style>.cls-1{fill:#001c71;}.cls-2{fill:#b12028;}.cls-3{fill:#0075c9;}.cls-4{fill:#f32735;}.cls-5{fill:#592c82;}</style></defs><title>Artboard 3</title><g id="Color_-_full" data-name="Color - full"><path class="cls-1" d="M198.26,89.6H179.49l-3,8.88H163.66l18.19-50.29H196l18.2,50.29h-13Zm-3.15-9.46-6.24-18.41-6.16,18.41Z"/><path class="cls-1" d="M216.24,60a23.14,23.14,0,0,1,9-9.1,26.17,26.17,0,0,1,13.08-3.26,25,25,0,0,1,15.33,4.73,22.77,22.77,0,0,1,8.53,12.9H248.7a10.94,10.94,0,0,0-4.27-4.8,12,12,0,0,0-6.26-1.65A11.73,11.73,0,0,0,229,62.73q-3.51,3.95-3.51,10.53T229,83.79a11.71,11.71,0,0,0,9.18,3.95,12,12,0,0,0,6.26-1.65,10.94,10.94,0,0,0,4.27-4.8h13.47a22.61,22.61,0,0,1-8.53,12.86,25.13,25.13,0,0,1-15.33,4.69,26.17,26.17,0,0,1-13.08-3.26,23.1,23.1,0,0,1-9-9.06A26.84,26.84,0,0,1,213,73.26,27.06,27.06,0,0,1,216.24,60Z"/><path class="cls-1" d="M270.48,60a23.07,23.07,0,0,1,9-9.1,26.11,26.11,0,0,1,13.07-3.26,25,25,0,0,1,15.33,4.73,22.72,22.72,0,0,1,8.53,12.9H302.93a10.86,10.86,0,0,0-4.26-4.8,12,12,0,0,0-6.27-1.65,11.73,11.73,0,0,0-9.17,3.94q-3.51,3.95-3.51,10.53t3.51,10.53a11.7,11.7,0,0,0,9.17,3.95,12,12,0,0,0,6.27-1.65,10.86,10.86,0,0,0,4.26-4.8H316.4a22.56,22.56,0,0,1-8.53,12.86,25.13,25.13,0,0,1-15.33,4.69,26.11,26.11,0,0,1-13.07-3.26,23,23,0,0,1-9-9.06,26.84,26.84,0,0,1-3.23-13.26A27.07,27.07,0,0,1,270.48,60Z"/><path class="cls-1" d="M322.56,98.48V47.61h22.93a14.79,14.79,0,0,1,6.62,1.51,17.63,17.63,0,0,1,5.27,3.94,18.21,18.21,0,0,1,3.47,5.52,16.32,16.32,0,0,1,1.26,6.23,18,18,0,0,1-.57,4.55,18.29,18.29,0,0,1-1.65,4.12,15.73,15.73,0,0,1-6.09,6.09L365,98.48H351.72L342,82.08h-7.67v16.4Zm11.75-26.65h10.75a4.42,4.42,0,0,0,3.58-2,8.1,8.1,0,0,0,1.5-5,7.12,7.12,0,0,0-1.72-5,5,5,0,0,0-3.72-1.86H334.31Z"/><path class="cls-1" d="M380.38,48.19V78.28c0,3,.74,5.32,2.22,7s3.65,2.43,6.52,2.43a8.64,8.64,0,0,0,6.59-2.43c1.53-1.63,2.29-3.94,2.29-7V48.19h12.25v30a21.35,21.35,0,0,1-2.86,11.39,18.38,18.38,0,0,1-7.71,7A24.13,24.13,0,0,1,388.9,99a23.54,23.54,0,0,1-10.64-2.33,17.29,17.29,0,0,1-7.41-7,22.32,22.32,0,0,1-2.72-11.42v-30Z"/><path class="cls-1" d="M430.74,58V68.18h16.41v9.45H430.74v11H449.3v9.81H418.49V48.19H449.3V58Z"/><path class="cls-1" d="M503.32,98.48H491.07l-20.5-31v31H458.32V48.19h12.25l20.5,31.16V48.19h12.25Z"/><path class="cls-1" d="M548,48.19V58H534.7V98.48H522.45V58H509.12V48.19Z"/><path class="cls-1" d="M87.45,84.34H56.27a18,18,0,1,0,15.58,27h0Z"/><path class="cls-2" d="M129,84.34H97.84l15.59,27h0a18,18,0,1,0,15.59-27Z"/><path class="cls-3" d="M56.27,84.34H87.45l-18-31.19A26.74,26.74,0,0,1,67,47.77L40.68,93.34h0A18,18,0,0,1,56.27,84.34Z"/><path class="cls-4" d="M144.59,93.34h0L118.3,47.77a26.77,26.77,0,0,1-2.46,5.38l-18,31.19H129A18,18,0,0,1,144.59,93.34Z"/><path class="cls-5" d="M110.64,39.34a18,18,0,1,0-33.57,9h0l15.59,27,15.59-27h0A17.85,17.85,0,0,0,110.64,39.34Z"/></g></svg>