<svg id="Layer_1" data-name="Layer 1" xmlns="http://www.w3.org/2000/svg" viewBox="0 0 216 216"><defs><style>.cls-1{fill:#001c71;}.cls-2{fill:#b12028;}.cls-3{fill:#0075c9;}.cls-4{fill:#f32735;}.cls-5{fill:#592c82;}</style></defs><title>Artboard 17</title><g id="color_-_icon" data-name="color - icon"><path class="cls-1" d="M101.22,127.1h-51a29.45,29.45,0,1,0,25.5,44.15v0Z"/><path class="cls-2" d="M169.24,127.1h-51l25.51,44.18,0,0a29.44,29.44,0,1,0,25.49-44.15Z"/><path class="cls-3" d="M50.2,127.1h51l-29.47-51a44.08,44.08,0,0,1-4-8.8l-43,74.56h0A29.41,29.41,0,0,1,50.2,127.1Z"/><path class="cls-4" d="M194.72,141.82h0L151.7,67.26a44.08,44.08,0,0,1-4,8.8l-29.47,51h51A29.41,29.41,0,0,1,194.72,141.82Z"/><path class="cls-5" d="M139.18,53.46A29.46,29.46,0,1,0,84.24,68.19h0l25.51,44.18,25.51-44.18h0A29.23,29.23,0,0,0,139.18,53.46Z"/></g></svg>