<?xml version="1.0"?>
<svg xmlns="http://www.w3.org/2000/svg" xmlns:xlink="http://www.w3.org/1999/xlink" xmlns:svgjs="http://svgjs.com/svgjs" version="1.1" width="512" height="512" x="0" y="0" viewBox="0 0 512.00002 512" style="enable-background:new 0 0 512 512" xml:space="preserve" class=""><g><path xmlns="http://www.w3.org/2000/svg" d="m173.304688 20.328125-164.777344-20.2695312c-2.15625-.2695318-4.332032.4062502-5.964844 1.8476562-1.628906 1.445312-2.5625 3.515625-2.5625 5.695312v435.269532c0 3.839844 2.863281 7.074218 6.671875 7.546875l164.777344 20.269531c.3125.035156.621093.054688.929687.054688 1.84375 0 3.636719-.671876 5.035156-1.90625 1.632813-1.445313 2.566407-3.515626 2.566407-5.695313v-435.269531c0-3.839844-2.863281-7.074219-6.675781-7.542969zm0 0" fill="#001c71" data-original="#f9e075" style="" class=""/><path xmlns="http://www.w3.org/2000/svg" d="m342.410156 1.90625c-1.628906-1.441406-3.800781-2.113281-5.964844-1.8476562l-163.550781 20.1171872v450.546875c.210938-.007812.421875-.011718.628907-.039062l164.777343-20.269532c3.8125-.46875 6.671875-3.703124 6.671875-7.542968v-435.269532c.003906-2.179687-.929687-4.25-2.5625-5.695312zm0 0" fill="#f32735" data-original="#f9cd45" style="" class=""/><path xmlns="http://www.w3.org/2000/svg" d="m505.328125 20.328125-164.78125-20.2695312c-.710937-.0898438-1.421875-.0664063-2.121094.0468752v450.265625c.089844.011718.175781.03125.265625.042968l164.78125 20.269532c.308594.039062.617188.058594.925782.058594 1.84375 0 3.640624-.671876 5.035156-1.910157 1.632812-1.441406 2.566406-3.515625 2.566406-5.691406v-435.269531c0-3.839844-2.863281-7.074219-6.671875-7.542969zm0 0" fill="#001c71" data-original="#f9e075" style="" class=""/><path xmlns="http://www.w3.org/2000/svg" d="m505.328125 20.328125-23.515625-2.894531c3.398438.792968 5.863281 3.835937 5.863281 7.398437v435.269531c0 2.175782-.933593 4.25-2.5625 5.691407-1.398437 1.238281-3.195312 1.910156-5.039062 1.910156-.308594 0-.617188-.019531-.925781-.058594l-140.71875-17.308593v.035156c.085937.015625.175781.035156.261718.042968l164.78125 20.269532c.308594.039062.617188.058594.925782.058594 1.84375 0 3.640624-.671876 5.035156-1.910157 1.632812-1.441406 2.566406-3.515625 2.566406-5.691406v-435.269531c0-3.839844-2.863281-7.074219-6.671875-7.542969zm0 0" fill="#f32735" data-original="#f9cd45" style="" class=""/><path xmlns="http://www.w3.org/2000/svg" d="m140.222656 295.738281-95.703125-12.167969c-2.160156-.273437-4.347656.394532-5.984375 1.835938-1.636718 1.445312-2.574218 3.523438-2.574218 5.703125v108.953125c0 3.828125 2.84375 7.058594 6.640624 7.542969l95.703126 12.164062c.320312.042969.640624.0625.960937.0625 1.835937 0 3.628906-.667969 5.023437-1.898437 1.636719-1.441406 2.574219-3.519532 2.574219-5.703125v-108.953125c0-3.824219-2.84375-7.054688-6.640625-7.539063zm0 0" fill="#b12028" data-original="#e480be" style="" class=""/><path xmlns="http://www.w3.org/2000/svg" d="m470.820312 65.785156-95.703124-12.167968c-2.164063-.273438-4.347657.394531-5.984376 1.835937-1.636718 1.445313-2.574218 3.523437-2.574218 5.703125v108.953125c0 3.828125 2.84375 7.058594 6.640625 7.539063l95.703125 12.167968c.320312.042969.640625.0625.960937.0625 1.835938 0 3.628907-.667968 5.023438-1.898437 1.636719-1.441407 2.574219-3.519531 2.574219-5.703125v-108.949219c.003906-3.828125-2.84375-7.058594-6.640626-7.542969zm0 0" fill="#b12028" data-original="#f195d6" style="" class=""/><path xmlns="http://www.w3.org/2000/svg" d="m470.820312 302.5-95.703124-12.167969c-2.164063-.273437-4.347657.394531-5.984376 1.839844-1.636718 1.441406-2.574218 3.519531-2.574218 5.703125v108.953125c0 3.824219 2.84375 7.054687 6.640625 7.539063l95.703125 12.167968c.320312.039063.640625.058594.960937.058594 1.835938 0 3.628907-.667969 5.023438-1.894531 1.636719-1.445313 2.574219-3.523438 2.574219-5.707031v-108.949219c.003906-3.828125-2.84375-7.058594-6.640626-7.542969zm0 0" fill="#007ac9" data-original="#65cee3" style="" class=""/><path xmlns="http://www.w3.org/2000/svg" d="m309.253906 107.140625c-1.640625-1.441406-3.820312-2.109375-5.984375-1.835937l-95.703125 12.167968c-3.796875.480469-6.640625 3.710938-6.640625 7.539063v131.25c0 2.179687.9375 4.257812 2.574219 5.703125 1.394531 1.230468 3.183594 1.894531 5.023438 1.894531.320312 0 .640624-.019531.960937-.058594l95.703125-12.167969c3.796875-.480468 6.640625-3.714843 6.640625-7.539062v-131.25c.003906-2.183594-.9375-4.261719-2.574219-5.703125zm0 0" fill="#007ac9" data-original="#65cee3" style="" class=""/><g xmlns="http://www.w3.org/2000/svg" fill="#fff4f1"><path d="m136.144531 84.726562c-.308593 0-.621093-.019531-.9375-.054687l-89.445312-11.003906c-4.167969-.515625-7.128907-4.304688-6.617188-8.472657.511719-4.167968 4.308594-7.132812 8.472657-6.617187l89.445312 11.003906c4.167969.511719 7.128906 4.304688 6.617188 8.472657-.472657 3.851562-3.75 6.671874-7.535157 6.671874zm0 0" fill="#fff4f1" data-original="#fff4f1" style="" class=""/><path d="m209.050781 89.796875c-3.785156 0-7.0625-2.824219-7.535156-6.675781-.511719-4.164063 2.449219-7.960938 6.617187-8.472656l89.445313-11.003907c4.167969-.511719 7.960937 2.449219 8.472656 6.617188s-2.449219 7.960937-6.617187 8.472656l-89.445313 11.003906c-.316406.039063-.628906.058594-.9375.058594zm0 0" fill="#fff4f1" data-original="#fff4f1" style="" class=""/><path d="m209.050781 319.417969c-3.785156 0-7.0625-2.824219-7.535156-6.675781-.511719-4.164063 2.449219-7.960938 6.617187-8.472657l89.445313-11.003906c4.167969-.511719 7.960937 2.449219 8.472656 6.617187.511719 4.167969-2.449219 7.960938-6.617187 8.472657l-89.445313 11.003906c-.316406.039063-.628906.058594-.9375.058594zm0 0" fill="#fff4f1" data-original="#fff4f1" style="" class=""/><path d="m209.050781 366.035156c-3.785156 0-7.0625-2.820312-7.535156-6.671875-.511719-4.167969 2.449219-7.960937 6.617187-8.472656l89.445313-11.003906c4.167969-.511719 7.960937 2.449219 8.472656 6.617187.511719 4.164063-2.449219 7.957032-6.617187 8.46875l-89.445313 11.003906c-.316406.039063-.628906.058594-.9375.058594zm0 0" fill="#fff4f1" data-original="#fff4f1" style="" class=""/><path d="m209.050781 412.65625c-3.785156 0-7.0625-2.824219-7.535156-6.675781-.511719-4.164063 2.449219-7.960938 6.617187-8.472657l89.445313-11.003906c4.167969-.511718 7.960937 2.449219 8.472656 6.617188.511719 4.167968-2.449219 7.960937-6.617187 8.472656l-89.445313 11.003906c-.316406.039063-.628906.058594-.9375.058594zm0 0" fill="#fff4f1" data-original="#fff4f1" style="" class=""/><path d="m136.144531 129.320312c-.308593 0-.621093-.019531-.9375-.058593l-89.445312-11.003907c-4.167969-.511718-7.128907-4.304687-6.617188-8.472656.511719-4.164062 4.308594-7.128906 8.472657-6.613281l89.445312 11.003906c4.167969.511719 7.128906 4.304688 6.617188 8.472657-.472657 3.847656-3.75 6.671874-7.535157 6.671874zm0 0" fill="#fff4f1" data-original="#fff4f1" style="" class=""/><path d="m469.871094 235.300781c-.308594 0-.621094-.019531-.9375-.058593l-89.445313-11.003907c-4.164062-.511719-7.128906-4.304687-6.617187-8.472656.511718-4.167969 4.308594-7.132813 8.472656-6.617187l89.445312 11.003906c4.167969.511718 7.128907 4.304687 6.617188 8.472656-.472656 3.851562-3.75 6.675781-7.535156 6.675781zm0 0" fill="#fff4f1" data-original="#fff4f1" style="" class=""/><path d="m469.871094 279.890625c-.308594 0-.621094-.019531-.9375-.058594l-89.445313-11c-4.164062-.515625-7.128906-4.308593-6.617187-8.472656.511718-4.167969 4.308594-7.132813 8.472656-6.617187l89.445312 11.003906c4.167969.511718 7.128907 4.304687 6.617188 8.472656-.472656 3.851562-3.75 6.671875-7.535156 6.671875zm0 0" fill="#fff4f1" data-original="#fff4f1" style="" class=""/><path d="m136.144531 173.914062c-.308593 0-.621093-.019531-.9375-.058593l-89.445312-11.003907c-4.167969-.511718-7.128907-4.304687-6.617188-8.472656.511719-4.167968 4.308594-7.132812 8.472657-6.617187l89.445312 11.003906c4.167969.511719 7.128906 4.304687 6.617188 8.472656-.472657 3.851563-3.75 6.675781-7.535157 6.675781zm0 0" fill="#fff4f1" data-original="#fff4f1" style="" class=""/><path d="m136.144531 218.503906c-.308593 0-.621093-.019531-.9375-.058594l-89.445312-11c-4.167969-.515624-7.128907-4.304687-6.617188-8.472656.511719-4.167968 4.308594-7.132812 8.472657-6.617187l89.445312 11.003906c4.167969.511719 7.128906 4.304687 6.617188 8.472656-.472657 3.851563-3.75 6.671875-7.535157 6.671875zm0 0" fill="#fff4f1" data-original="#fff4f1" style="" class=""/><path d="m136.144531 263.097656c-.308593 0-.621093-.019531-.9375-.058594l-89.445312-11.003906c-4.167969-.511718-7.128907-4.304687-6.617188-8.472656.511719-4.164062 4.308594-7.128906 8.472657-6.613281l89.445312 11c4.167969.515625 7.128906 4.308593 6.617188 8.472656-.472657 3.851563-3.75 6.675781-7.535157 6.675781zm0 0" fill="#fff4f1" data-original="#fff4f1" style="" class=""/></g></g></svg>
